{"title":"Happy Ending (2014) [1CD] DVDSCR Rip Xvid Mp3 Team TellyTNT Excl","uid":11533222,"size":845132458,"categoryP":"video","categoryS":"movies","magnet":"?xt=urn:btih:9601ecc21c8484d36f1548eadb04fc62fb929e7b&amp;dn=Happy+Ending+%282014%29+%5B1CD%5D+DVDSCR+Rip+Xvid+Mp3+Team+TellyTNT+Excl&amp;tr=udp%3A%2F%2Ftracker.openbittorrent.com%3A80&amp;tr=udp%3A%2F%2Fopen.demonii.com%3A1337&amp;tr=udp%3A%2F%2Ftracker.coppersurfer.tk%3A6969&amp;tr=udp%3A%2F%2Fexodus.desync.com%3A6969","seeders":17,"leechers":3,"uploader":"inovai","files":16,"time":1416596446,"description":"Happy Ending (2014) DVDSCR Rip Xvid AC3 Team TellyTNT Exclusive\n\nScreenshots:\n &lt;a href=&quot;\nhttp://m.primetimeshow.in/share-9D0F_546F7D51.html&quot; rel=&quot;nofollow&quot; target=&quot;_NEW&quot;&gt;\nhttp://m.primetimeshow.in/share-9D0F_546F7D51.html&lt;/a&gt;\n &lt;a href=&quot;\nhttp://m.primetimeshow.in/share-563D_546F7D51.html&quot; rel=&quot;nofollow&quot; target=&quot;_NEW&quot;&gt;\nhttp://m.primetimeshow.in/share-563D_546F7D51.html&lt;/a&gt;\n &lt;a href=&quot;\nhttp://m.primetimeshow.in/share-DB51_546F7D51.html&quot; rel=&quot;nofollow&quot; target=&quot;_NEW&quot;&gt;\nhttp://m.primetimeshow.in/share-DB51_546F7D51.html&lt;/a&gt;\n &lt;a href=&quot;\nhttp://m.primetimeshow.in/share-73B4_546F7D51.html&quot; rel=&quot;nofollow&quot; target=&quot;_NEW&quot;&gt;\nhttp://m.primetimeshow.in/share-73B4_546F7D51.html&lt;/a&gt;\n &lt;a href=&quot;\nhttp://m.primetimeshow.in/share-9DEA_546F7D51.html&quot; rel=&quot;nofollow&quot; target=&quot;_NEW&quot;&gt;\nhttp://m.primetimeshow.in/share-9DEA_546F7D51.html&lt;/a&gt;\n\n\nMovie:............Happy Ending\nSource: ..........DVDSCR @ Team TellyTNT\nYear:.............2014[/color]\n\n\nGeneral\nComplete name : D:Happy Ending.avi\nFormat : AVI\nFormat/Info : Audio Video Interleave\nFile size : 799 MiB\nDuration : 2h 9mn\nOverall bit rate : 863 Kbps\n\nVideo\nID : 0\nFormat : MPEG-4 Visual\nFormat profile : Advanced Simple@L5\nFormat settings, BVOP : 2\nFormat settings, QPel : No\nFormat settings, GMC : No warppoints\nFormat settings, Matrix : Default (H.263)\nCodec ID : XVID\nCodec ID/Hint : XviD\nDuration : 2h 9mn\nBit rate : 663 Kbps\nWidth : 640 pixels\nHeight : 272 pixels\nDisplay aspect ratio : 2.35:1\nFrame rate : 23.976 fps\nColor space : YUV\nChroma subsampling : 4:2:0\nBit depth : 8 bits\nScan type : Progressive\nCompression mode : Lossy\nBits/(Pixel*Frame) : 0.159\nStream size : 615 MiB (77%)\nWriting library : XviD 1.2.1 (UTC 2008-12-04)\n\nAudio\nID : 1\nFormat : AC-3\nFormat/Info : Audio Coding 3\nMode extension : CM (complete main)\nFormat settings, Endianness : Big\nCodec ID : 2000\nDuration : 2h 9mn\nBit rate mode : Constant\nBit rate : 192 Kbps\nChannel(s) : 2 channels\nChannel positions : Front: L R\nSampling rate : 48.0 KHz\nBit depth : 16 bits\nCompression mode : Lossy\nStream size : 178 MiB (22%)\nAlignment : Aligned on interleaves\nInterleave, duration : 64 ms (1.53 video frames)\nInterleave, preload duration : 192 ms\nTitle : VTS_01_1 T01 2_0ch 192Kbps DELAY 0ms\n\nThanks to Team TellyTNT!!\n\nSeed n Enjoy!!","torrent":{"xt":"urn:btih:9601ecc21c8484d36f1548eadb04fc62fb929e7b","amp;dn":"Happy+Ending+%282014%29+%5B1CD%5D+DVDSCR+Rip+Xvid+Mp3+Team+TellyTNT+Excl","amp;tr":["udp%3A%2F%2Ftracker.openbittorrent.com%3A80","udp%3A%2F%2Fopen.demonii.com%3A1337","udp%3A%2F%2Ftracker.coppersurfer.tk%3A6969","udp%3A%2F%2Fexodus.desync.com%3A6969"],"infoHash":"9601ecc21c8484d36f1548eadb04fc62fb929e7b","infoHashBuffer":{"type":"Buffer","data":[150,1,236,194,28,132,132,211,111,21,72,234,219,4,252,98,251,146,158,123]},"announce":[],"urlList":[]}}